<svg xmlns="http://www.w3.org/2000/svg" version="1.0" width="100%" height="100%" viewBox="0 0 1024.000000 1024.000000" preserveAspectRatio="xMidYMid meet" xmlns:svg="http://www.w3.org/2000/svg" xmlns:xlink="http://www.w3.org/1999/xlink"><rect id="svgEditorBackground" x="0" y="0" width="1024" height="1024" style="fill: none; stroke: none;"/>
<metadata>
Created by potrace 1.12, written by Peter Selinger 2001-2015
</metadata>
<g transform="translate(0.000000,1024.000000) scale(0.100000,-0.100000)" fill="#FFFFFF" stroke="none">
<path d="M5841,10135c-68,-32,-159,-124,-233,-236c-60,-89,-167,-290,-214,-401l-28,-68l-226,0c-502,0,-971,-77,-1476,-241l-181,-59l-114,116c-132,134,-242,224,-337,276c-74,42,-156,64,-196,54c-131,-33,-209,-310,-223,-791l-6,-210l-66,-70c-326,-345,-519,-800,-550,-1295c-7,-112,-12,-134,-45,-212c-20,-47,-46,-122,-57,-165c-26,-99,-36,-285,-20,-379c17,-94,68,-227,116,-298c114,-172,360,-351,555,-402c137,-37,310,-20,431,42l48,24l30,-53c155,-272,484,-566,839,-752c40,-21,71,-39,70,-40c-2,-1,-88,2,-193,6c-665,29,-1583,28,-1872,0c-169,-17,-271,-90,-351,-252c-72,-145,-121,-382,-109,-524c14,-162,92,-350,184,-443c107,-108,202,-129,512,-113c393,21,807,83,1275,192c93,21,171,37,173,35c2,-1,-40,-75,-93,-162c-79,-130,-238,-431,-255,-482c-3,-10,-18,-9,-64,2c-90,23,-257,35,-624,47c-232,7,-384,7,-510,-1c-764,-45,-1110,-209,-989,-468c68,-143,225,-201,378,-140c74,30,216,61,370,80c144,18,850,17,1123,-1l207,-14l0,-86c1,-485,226,-992,626,-1410l105,-110l-98,40c-232,95,-508,175,-704,205c-132,20,-318,13,-439,-16c-244,-60,-404,-207,-441,-405c-19,-100,-6,-282,29,-415c25,-96,112,-323,140,-367c15,-24,374,-67,712,-84c617,-32,1451,45,2088,192l92,21l-6,41c-25,173,-83,392,-259,988c-175,590,-260,923,-280,1104l-7,60l168,-3c390,-8,646,58,790,202c198,199,295,492,265,799c-10,96,-26,177,-57,285c-7,26,-16,26,111,-4c301,-70,538,-274,649,-556c34,-87,72,-231,88,-338c17,-114,17,-519,-1,-788c-10,-139,-11,-222,-5,-240c21,-62,152,-118,340,-148c135,-21,492,-23,704,-5c516,45,1088,159,1322,263l68,31l30,93c69,215,92,494,56,664c-47,222,-188,370,-406,426c-89,23,-267,14,-410,-20c-233,-55,-492,-160,-742,-302c-43,-24,-80,-44,-82,-44c-3,0,7,30,21,68c118,304,181,643,170,912c-13,322,-106,550,-300,740c-36,35,-65,66,-63,67c2,2,68,15,147,29c338,59,723,160,994,260c148,54,188,86,235,186c96,202,46,595,-105,823c-104,157,-261,257,-445,286c-64,10,-76,8,-157,-16c-295,-90,-795,-279,-1012,-381c-74,-35,-136,-64,-138,-64c-2,0,14,26,35,58c95,139,181,350,225,553l22,100l76,33c114,50,214,119,305,210c171,172,244,369,231,621c-9,165,-48,285,-134,420c-94,145,-234,276,-373,349l-67,35l-52,108c-102,211,-227,389,-390,557c-91,93,-274,245,-310,257c-6,2,-27,63,-46,135c-140,533,-306,901,-440,980c-53,30,-86,30,-154,-1ZM5246,9148c2,-3,-23,-85,-56,-184l-60,-179l-182,-6c-101,-4,-221,-12,-268,-18c-260,-35,-516,-106,-666,-185l-82,-43l-117,165c-64,90,-119,170,-121,177c-3,7,3,15,13,18c10,3,65,23,123,45c297,114,672,193,1025,216c74,5,385,0,391,-6ZM6676,8451c78,-96,225,-312,218,-322c-3,-5,-15,-9,-27,-9c-12,0,-53,-15,-90,-34c-46,-23,-70,-31,-72,-23c-10,28,-93,376,-99,415c-4,26,-2,42,4,42c5,0,35,-31,66,-69ZM2639,7550c6,-46,11,-89,11,-95c0,-8,-33,-12,-92,-12c-81,0,-122,-7,-200,-29c-44,-13,-5,209,65,373c43,100,115,233,159,293l33,45l6,-245c4,-135,12,-283,18,-330ZM6717,6796c-6,-251,-20,-389,-58,-586c-42,-218,-115,-466,-136,-464c-7,1,-79,2,-161,3l-147,1l-132,257c-73,142,-134,251,-137,243c-2,-8,-25,-120,-50,-249c-25,-129,-48,-236,-50,-238c-2,-2,-65,-10,-141,-18c-316,-33,-685,-113,-889,-191c-7,-3,-88,77,-192,190c-98,107,-179,194,-181,192c-1,-1,9,-109,22,-240c14,-131,25,-246,25,-256c0,-10,-34,-39,-87,-75c-49,-32,-113,-77,-144,-101l-57,-43l-94,97c-222,229,-455,571,-597,877c-30,66,-31,70,-14,83c39,30,234,142,341,196l113,58l52,-45c28,-24,116,-108,195,-184l144,-140l-7,51c-6,46,-43,284,-61,393l-6,43l46,19c143,62,535,165,891,234c240,47,444,81,450,75c1,-1,58,-88,125,-193c67,-104,128,-196,135,-203c14,-15,14,-15,41,238c9,91,21,170,26,176c4,6,36,14,71,18c224,23,302,28,467,35c102,3,189,5,194,2c5,-2,6,-112,3,-255ZM5278,3722c37,-150,54,-289,50,-403c-4,-93,-8,-114,-34,-165c-52,-105,-151,-152,-340,-161c-113,-6,-271,3,-292,16c-9,5,-8,28,4,94c59,342,243,588,511,682c37,14,71,25,74,25c3,0,16,-39,27,-88Z" fill="black"/>
</g>
</svg>