<?xml version="1.0" standalone="no"?>
<!DOCTYPE svg PUBLIC "-//W3C//DTD SVG 20010904//EN"
 "http://www.w3.org/TR/2001/REC-SVG-20010904/DTD/svg10.dtd">
<svg version="1.0" xmlns="http://www.w3.org/2000/svg"
 width="1024.000000pt" height="1024.000000pt" viewBox="0 0 1024.000000 1024.000000"
 preserveAspectRatio="xMidYMid meet">
<metadata>
Created by potrace 1.12, written by Peter Selinger 2001-2015
</metadata>
<g transform="translate(0.000000,1024.000000) scale(0.100000,-0.100000)"
fill="#FFFFFF" stroke="none">
<path d="M5841 10135 c-68 -32 -159 -124 -233 -236 -60 -89 -167 -290 -214
-401 l-28 -68 -226 0 c-502 0 -971 -77 -1476 -241 l-181 -59 -114 116 c-132
134 -242 224 -337 276 -74 42 -156 64 -196 54 -131 -33 -209 -310 -223 -791
l-6 -210 -66 -70 c-326 -345 -519 -800 -550 -1295 -7 -112 -12 -134 -45 -212
-20 -47 -46 -122 -57 -165 -26 -99 -36 -285 -20 -379 17 -94 68 -227 116 -298
114 -172 360 -351 555 -402 137 -37 310 -20 431 42 l48 24 30 -53 c155 -272
484 -566 839 -752 40 -21 71 -39 70 -40 -2 -1 -88 2 -193 6 -665 29 -1583 28
-1872 0 -169 -17 -271 -90 -351 -252 -72 -145 -121 -382 -109 -524 14 -162 92
-350 184 -443 107 -108 202 -129 512 -113 393 21 807 83 1275 192 93 21 171
37 173 35 2 -1 -40 -75 -93 -162 -79 -130 -238 -431 -255 -482 -3 -10 -18 -9
-64 2 -90 23 -257 35 -624 47 -232 7 -384 7 -510 -1 -764 -45 -1110 -209 -989
-468 68 -143 225 -201 378 -140 74 30 216 61 370 80 144 18 850 17 1123 -1
l207 -14 0 -86 c1 -485 226 -992 626 -1410 l105 -110 -98 40 c-232 95 -508
175 -704 205 -132 20 -318 13 -439 -16 -244 -60 -404 -207 -441 -405 -19 -100
-6 -282 29 -415 25 -96 112 -323 140 -367 15 -24 374 -67 712 -84 617 -32
1451 45 2088 192 l92 21 -6 41 c-25 173 -83 392 -259 988 -175 590 -260 923
-280 1104 l-7 60 168 -3 c390 -8 646 58 790 202 198 199 295 492 265 799 -10
96 -26 177 -57 285 -7 26 -16 26 111 -4 301 -70 538 -274 649 -556 34 -87 72
-231 88 -338 17 -114 17 -519 -1 -788 -10 -139 -11 -222 -5 -240 21 -62 152
-118 340 -148 135 -21 492 -23 704 -5 516 45 1088 159 1322 263 l68 31 30 93
c69 215 92 494 56 664 -47 222 -188 370 -406 426 -89 23 -267 14 -410 -20
-233 -55 -492 -160 -742 -302 -43 -24 -80 -44 -82 -44 -3 0 7 30 21 68 118
304 181 643 170 912 -13 322 -106 550 -300 740 -36 35 -65 66 -63 67 2 2 68
15 147 29 338 59 723 160 994 260 148 54 188 86 235 186 96 202 46 595 -105
823 -104 157 -261 257 -445 286 -64 10 -76 8 -157 -16 -295 -90 -795 -279
-1012 -381 -74 -35 -136 -64 -138 -64 -2 0 14 26 35 58 95 139 181 350 225
553 l22 100 76 33 c114 50 214 119 305 210 171 172 244 369 231 621 -9 165
-48 285 -134 420 -94 145 -234 276 -373 349 l-67 35 -52 108 c-102 211 -227
389 -390 557 -91 93 -274 245 -310 257 -6 2 -27 63 -46 135 -140 533 -306 901
-440 980 -53 30 -86 30 -154 -1z m-595 -987 c2 -3 -23 -85 -56 -184 l-60 -179
-182 -6 c-101 -4 -221 -12 -268 -18 -260 -35 -516 -106 -666 -185 l-82 -43
-117 165 c-64 90 -119 170 -121 177 -3 7 3 15 13 18 10 3 65 23 123 45 297
114 672 193 1025 216 74 5 385 0 391 -6z m1430 -697 c78 -96 225 -312 218
-322 -3 -5 -15 -9 -27 -9 -12 0 -53 -15 -90 -34 -46 -23 -70 -31 -72 -23 -10
28 -93 376 -99 415 -4 26 -2 42 4 42 5 0 35 -31 66 -69z m-4037 -901 c6 -46
11 -89 11 -95 0 -8 -33 -12 -92 -12 -81 0 -122 -7 -200 -29 -44 -13 -5 209 65
373 43 100 115 233 159 293 l33 45 6 -245 c4 -135 12 -283 18 -330z m4078
-754 c-6 -251 -20 -389 -58 -586 -42 -218 -115 -466 -136 -464 -7 1 -79 2
-161 3 l-147 1 -132 257 c-73 142 -134 251 -137 243 -2 -8 -25 -120 -50 -249
-25 -129 -48 -236 -50 -238 -2 -2 -65 -10 -141 -18 -316 -33 -685 -113 -889
-191 -7 -3 -88 77 -192 190 -98 107 -179 194 -181 192 -1 -1 9 -109 22 -240
14 -131 25 -246 25 -256 0 -10 -34 -39 -87 -75 -49 -32 -113 -77 -144 -101
l-57 -43 -94 97 c-222 229 -455 571 -597 877 -30 66 -31 70 -14 83 39 30 234
142 341 196 l113 58 52 -45 c28 -24 116 -108 195 -184 l144 -140 -7 51 c-6 46
-43 284 -61 393 l-6 43 46 19 c143 62 535 165 891 234 240 47 444 81 450 75 1
-1 58 -88 125 -193 67 -104 128 -196 135 -203 14 -15 14 -15 41 238 9 91 21
170 26 176 4 6 36 14 71 18 224 23 302 28 467 35 102 3 189 5 194 2 5 -2 6
-112 3 -255z m-1439 -3074 c37 -150 54 -289 50 -403 -4 -93 -8 -114 -34 -165
-52 -105 -151 -152 -340 -161 -113 -6 -271 3 -292 16 -9 5 -8 28 4 94 59 342
243 588 511 682 37 14 71 25 74 25 3 0 16 -39 27 -88z"/>
</g>
</svg>
